# xmcd
#
# Track frame offsets:
#   150
#   21092
#   39872
#   60446
#   76889
#   106340
#   127202
#   148619
#   165845
#   188894
#   206798
#   224540
#
# Disc length: 3259 seconds
#
# Revision: 0
# Processed by: cddbd v1.5.2PL0 Copyright (c) Steve Scherf et al.
# Submitted via: GXTranscoder 2.0.1939
#
DISCID=a30cb90c
DTITLE=Chris de Burgh - One
DYEAR=1900
DGENRE=Blues
TTITLE0=Where will we be going
TTITLE1=Ecstasy Of Flight
TTITLE2=Man on The Line
TTITLE3=Moonlight and Vodka
TTITLE4=Last Night
TTITLE5=Ballroom Of Romance
TTITLE6=In Your Eyes
TTITLE7=The Connemara Coast
TTITLE8=Brother John
TTITLE9=A Celebration
TTITLE10=Don`t PAy The Ferryman
TTITLE11=Lady In Read
EXTD=
EXTT0=
EXTT1=
EXTT2=
EXTT3=
EXTT4=
EXTT5=
EXTT6=
EXTT7=
EXTT8=
EXTT9=
EXTT10=
EXTT11=
PLAYORDER=
